<svg version="1.1" id="Layer_1" xmlns="http://www.w3.org/2000/svg" xmlns:xlink="http://www.w3.org/1999/xlink" x="0px" y="0px"
	 viewBox="0 0 1000 1000" style="enable-background:new 0 0 1000 1000;" xml:space="preserve">
<g>
	<g>
		<path d="M171.7,799.9c-8.6-76.3-34.1-149-53.5-222.8c-9.7-37-18-74.6-21.3-112.8c-1.6-18.9-2-38-0.8-57
			c1.1-17.8,3.2-36.1,8.7-53.1c5.7-17.5,16-32.7,32.7-41.2c16.1-8.2,34.5-10.1,52.2-11.8c42.5-4.1,85.2-6.8,127.9-9.5
			c84.6-5.4,169.1-11.2,252.6-26.2c83-14.8,164.7-36,247.3-53.3c5.1-1.1,10.2-2.1,15.2-3.1c4.8-1,10.1-2.2,15-1
			c10.7,2.6,10.4,17.4,10.4,26.2c-0.1,17.3-5.3,34.1-12.5,49.6c-15,32.5-37.3,61-51.8,93.8c-15.8,35.7-24.9,73.8-39,110.1
			c-13.3,34.4-29.8,67.6-48.6,99.3c-37.7,63.5-84.5,121.3-135.1,175c-25.7,27.3-52,55-81.3,78.6c-30.2,24.2-64.6,40.5-102.5,48.4
			c-36.9,7.7-74.9,8.3-112.4,6c-19.7-1.2-39.8-2.6-59.2-6.3c-18.2-3.5-36.3-9.8-50.3-22.3c-12-10.8-24.7-30.3-18.6-47.1
			c0.7-1.8-2.2-2.6-2.9-0.8c-5.5,14.9,3.4,32.6,13.1,43.7c11.2,12.9,26.7,21.1,43,25.8c19,5.6,39,7.2,58.6,8.8
			c19.2,1.6,38.5,2.5,57.7,2.3c37.8-0.4,76-5.2,111.4-18.8c36.5-14,66.8-38,94.8-64.9c54.8-52.7,106.4-109.6,150.3-171.7
			c21.7-30.7,41.6-62.8,58.6-96.4c17.6-34.8,31.2-70.8,43.2-107.9c6.5-20,12.9-40.2,21.4-59.5c7.6-17.2,17.2-33.4,26.9-49.4
			c17.7-29.1,37.6-60.4,38.1-95.6c0.1-7.4,0.1-16.8-3.8-23.4c-3.8-6.4-11.1-7.5-18-6.7c-9.5,1.1-19,3.7-28.4,5.6
			c-10.8,2.3-21.6,4.6-32.3,7c-42.8,9.5-85.4,19.6-128.2,28.8c-42.8,9.3-85.7,17.8-129.1,24c-44.4,6.4-89.2,10.4-133.9,13.6
			c-44.3,3.2-88.6,5.6-132.9,8.8c-22,1.6-43.9,3.3-65.9,5.5c-16.9,1.6-34.3,3.6-49.9,10.8C105.3,324.4,97.4,362,94,395.2
			c-3.9,38.1-0.8,76.5,5.8,114.2c13.9,78.7,42.5,153.7,59.1,231.8c4.1,19.4,7.5,39,9.7,58.8C168.9,801.8,171.9,801.8,171.7,799.9
			L171.7,799.9z"/>
	</g>
</g>
</svg>
