<?xml version="1.0" encoding="utf-8"?>
<!-- Generator: Adobe Illustrator 16.0.4, SVG Export Plug-In . SVG Version: 6.00 Build 0)  -->
<!DOCTYPE svg PUBLIC "-//W3C//DTD SVG 1.1//EN" "http://www.w3.org/Graphics/SVG/1.1/DTD/svg11.dtd">
<svg version="1.1" id="Layer_1" xmlns="http://www.w3.org/2000/svg" xmlns:xlink="http://www.w3.org/1999/xlink" x="0px" y="0px"
	 width="256px" height="256px" viewBox="205.66 47.695 256 256" enable-background="new 205.66 47.695 256 256"
	 xml:space="preserve">
<rect x="205.66" y="47.695" width="256" height="256"/>
<g>
	
		<rect x="232.16" y="175.413" fill="none" stroke="#FFFFFF" stroke-width="8" stroke-miterlimit="10" width="33.927" height="33.927"/>
	
		<rect x="266.087" y="175.413" fill="none" stroke="#FFFFFF" stroke-width="8" stroke-miterlimit="10" width="33.362" height="33.927"/>
	
		<rect x="266.087" y="142.05" fill="none" stroke="#FFFFFF" stroke-width="8" stroke-miterlimit="10" width="33.362" height="33.362"/>
	
		<rect x="266.087" y="108.688" fill="none" stroke="#FFFFFF" stroke-width="8" stroke-miterlimit="10" width="33.362" height="33.362"/>
	
		<rect x="299.45" y="175.413" fill="none" stroke="#FFFFFF" stroke-width="8" stroke-miterlimit="10" width="33.927" height="33.927"/>
	
		<rect x="299.45" y="142.05" fill="none" stroke="#FFFFFF" stroke-width="8" stroke-miterlimit="10" width="33.927" height="33.362"/>
	
		<rect x="299.45" y="209.34" fill="none" stroke="#FFFFFF" stroke-width="8" stroke-miterlimit="10" width="33.927" height="33.362"/>
	
		<rect x="333.377" y="175.413" fill="none" stroke="#FFFFFF" stroke-width="8" stroke-miterlimit="10" width="33.927" height="33.927"/>
	
		<rect x="333.377" y="142.05" fill="none" stroke="#FFFFFF" stroke-width="8" stroke-miterlimit="10" width="33.927" height="33.362"/>
	
		<rect x="367.304" y="175.413" fill="none" stroke="#FFFFFF" stroke-width="8" stroke-miterlimit="10" width="33.929" height="33.927"/>
	
		<rect x="367.304" y="142.05" fill="none" stroke="#FFFFFF" stroke-width="8" stroke-miterlimit="10" width="33.929" height="33.362"/>
	
		<rect x="401.233" y="175.413" fill="none" stroke="#FFFFFF" stroke-width="8" stroke-miterlimit="10" width="33.926" height="33.927"/>
	
		<rect x="401.233" y="142.05" fill="none" stroke="#FFFFFF" stroke-width="8" stroke-miterlimit="10" width="33.926" height="33.362"/>
	
		<rect x="367.304" y="108.688" fill="none" stroke="#FFFFFF" stroke-width="8" stroke-miterlimit="10" width="33.929" height="33.362"/>
	
		<rect x="333.377" y="209.34" fill="none" stroke="#FFFFFF" stroke-width="8" stroke-miterlimit="10" width="33.927" height="33.362"/>
	
		<rect x="367.304" y="209.34" fill="none" stroke="#FFFFFF" stroke-width="8" stroke-miterlimit="10" width="33.929" height="33.362"/>
</g>
</svg>
