<?xml version="1.0" encoding="utf-8"?>
<!-- Generator: Adobe Illustrator 16.0.4, SVG Export Plug-In . SVG Version: 6.00 Build 0)  -->
<!DOCTYPE svg PUBLIC "-//W3C//DTD SVG 1.1//EN" "http://www.w3.org/Graphics/SVG/1.1/DTD/svg11.dtd">
<svg version="1.1" id="Layer_1" xmlns="http://www.w3.org/2000/svg" xmlns:xlink="http://www.w3.org/1999/xlink" x="0px" y="0px"
	 width="667.319px" height="351.391px" viewBox="0 0 667.319 351.391" enable-background="new 0 0 667.319 351.391"
	 xml:space="preserve">
<rect x="28" y="142" fill="none" stroke="#FFFFFF" stroke-width="8" stroke-miterlimit="10" width="59" height="60"/>
<rect x="87" y="142" fill="none" stroke="#FFFFFF" stroke-width="8" stroke-miterlimit="10" width="60" height="60"/>
<rect x="87" y="202" fill="none" stroke="#FFFFFF" stroke-width="8" stroke-miterlimit="10" width="60" height="59"/>
<rect x="265" y="261" fill="none" stroke="#FFFFFF" stroke-width="8" stroke-miterlimit="10" width="60" height="60"/>
<rect x="206" y="261" fill="none" stroke="#FFFFFF" stroke-width="8" stroke-miterlimit="10" width="60" height="60"/>
<rect x="147" y="142" fill="none" stroke="#FFFFFF" stroke-width="8" stroke-miterlimit="10" width="59" height="60"/>
<rect x="147" y="83" fill="none" stroke="#FFFFFF" stroke-width="8" stroke-miterlimit="10" width="59" height="59"/>
<rect x="147" y="202" fill="none" stroke="#FFFFFF" stroke-width="8" stroke-miterlimit="10" width="59" height="59"/>
<rect x="206" y="142" fill="none" stroke="#FFFFFF" stroke-width="8" stroke-miterlimit="10" width="60" height="60"/>
<rect x="206" y="83" fill="none" stroke="#FFFFFF" stroke-width="8" stroke-miterlimit="10" width="60" height="59"/>
<rect x="206" y="202" fill="none" stroke="#FFFFFF" stroke-width="8" stroke-miterlimit="10" width="60" height="59"/>
<rect x="266" y="142" fill="none" stroke="#FFFFFF" stroke-width="8" stroke-miterlimit="10" width="59" height="60"/>
<rect x="266" y="83" fill="none" stroke="#FFFFFF" stroke-width="8" stroke-miterlimit="10" width="59" height="59"/>
<rect x="206" y="24" fill="none" stroke="#FFFFFF" stroke-width="8" stroke-miterlimit="10" width="60" height="59"/>
<rect x="266" y="24" fill="none" stroke="#FFFFFF" stroke-width="8" stroke-miterlimit="10" width="59" height="59"/>
<rect x="266" y="202" fill="none" stroke="#FFFFFF" stroke-width="8" stroke-miterlimit="10" width="59" height="59"/>
<rect x="325" y="142" fill="none" stroke="#FFFFFF" stroke-width="8" stroke-miterlimit="10" width="60" height="60"/>
<rect x="325" y="83" fill="none" stroke="#FFFFFF" stroke-width="8" stroke-miterlimit="10" width="60" height="59"/>
<rect x="325" y="202" fill="none" stroke="#FFFFFF" stroke-width="8" stroke-miterlimit="10" width="60" height="59"/>
<rect x="385" y="142" fill="none" stroke="#FFFFFF" stroke-width="8" stroke-miterlimit="10" width="60" height="60"/>
<rect x="385" y="83" fill="none" stroke="#FFFFFF" stroke-width="8" stroke-miterlimit="10" width="60" height="59"/>
<rect x="445" y="142" fill="none" stroke="#FFFFFF" stroke-width="8" stroke-miterlimit="10" width="60" height="60"/>
<rect x="445" y="83" fill="none" stroke="#FFFFFF" stroke-width="8" stroke-miterlimit="10" width="60" height="59"/>
<rect x="505" y="142" fill="none" stroke="#FFFFFF" stroke-width="8" stroke-miterlimit="10" width="60" height="60"/>
<rect x="505" y="83" fill="none" stroke="#FFFFFF" stroke-width="8" stroke-miterlimit="10" width="60" height="59"/>
<rect x="445" y="24" fill="none" stroke="#FFFFFF" stroke-width="8" stroke-miterlimit="10" width="60" height="59"/>
<rect x="505" y="24" fill="none" stroke="#FFFFFF" stroke-width="8" stroke-miterlimit="10" width="60" height="59"/>
<rect x="385" y="202" fill="none" stroke="#FFFFFF" stroke-width="8" stroke-miterlimit="10" width="60" height="59"/>
<rect x="445" y="202" fill="none" stroke="#FFFFFF" stroke-width="8" stroke-miterlimit="10" width="60" height="59"/>
<rect x="505" y="202" fill="none" stroke="#FFFFFF" stroke-width="8" stroke-miterlimit="10" width="60" height="59"/>
<rect x="565" y="142" fill="none" stroke="#FFFFFF" stroke-width="8" stroke-miterlimit="10" width="60" height="60"/>
<rect x="565" y="83" fill="none" stroke="#FFFFFF" stroke-width="8" stroke-miterlimit="10" width="60" height="59"/>
</svg>
